<svg width="122" height="41" viewBox="0 0 122 41" fill="none" xmlns="http://www.w3.org/2000/svg">
<g clip-path="url(#clip0_22_386)">
<path d="M25.356 8.19897H6.35669V28.0369H25.356V8.19897Z" fill="white"/>
<path d="M41.878 26.024L51.2282 15.1128H41.6318V11.5865H56.083V14.9651L46.7331 25.8763H56.083V29.4028H41.878V26.024Z" fill="white"/>
<path d="M76.0789 11.5046V29.4868H72.5368L72.5008 27.0868C71.1522 28.8407 68.8148 29.8931 66.1176 29.8931C60.9751 29.8931 57.4326 26.0344 57.4326 20.4957C57.4326 14.957 60.9751 11.0984 66.1176 11.0984C68.8506 11.0984 71.1522 12.1508 72.5008 13.9047L72.5368 11.5046H76.0789ZM72.1052 20.4773C72.1052 17.1356 69.9116 14.8094 66.7468 14.8094C63.6002 14.8094 61.3887 17.1356 61.3887 20.4773C61.3887 23.8189 63.5822 26.1452 66.7468 26.1452C69.9116 26.1637 72.1052 23.8374 72.1052 20.4773Z" fill="white"/>
<path d="M97.9466 20.4773C97.9466 26.016 94.4045 29.8747 89.2619 29.8747C86.8165 29.8747 84.6587 29.0068 83.2741 27.5114V37.7764H79.3003V11.5046H82.8424L82.8785 13.9047C84.2271 12.1508 86.5647 11.0984 89.2619 11.0984C94.4045 11.0984 97.9466 14.9571 97.9466 20.4773ZM93.9728 20.4773C93.9728 17.1356 91.7793 14.8094 88.6145 14.8094C85.5036 14.8094 83.2561 17.1356 83.2561 20.4773C83.2561 23.8189 85.4859 26.1452 88.6145 26.1452C91.7793 26.1637 93.9728 23.8374 93.9728 20.4773Z" fill="white"/>
<path d="M100.41 29.7196V11.5343H104.24V29.7196H100.41Z" fill="white"/>
<path d="M114.453 30.3103C113.392 30.3103 112.439 30.1627 111.576 29.8671C110.731 29.5719 109.976 29.2025 109.346 28.7225C108.717 28.2425 108.178 27.7071 107.728 27.0978C107.297 26.4886 106.955 25.8609 106.721 25.2147L110.263 23.6823C110.659 24.7347 111.252 25.4916 112.008 25.9901C112.763 26.4886 113.572 26.7286 114.453 26.7286C115.442 26.7286 116.233 26.5255 116.791 26.1009C117.366 25.6947 117.636 25.2332 117.636 24.7162C117.636 24.1993 117.42 23.7562 117.006 23.3869C116.575 23.0177 115.784 22.6854 114.597 22.39L112.116 21.7622C111.576 21.633 111.019 21.4484 110.461 21.1899C109.904 20.9314 109.4 20.5991 108.915 20.2114C108.447 19.8052 108.052 19.3252 107.764 18.7529C107.476 18.1806 107.315 17.5159 107.315 16.7405C107.315 15.8728 107.494 15.0974 107.872 14.4143C108.232 13.7312 108.735 13.1588 109.382 12.6973C110.012 12.2357 110.767 11.8849 111.594 11.6449C112.439 11.4049 113.32 11.2757 114.273 11.2757C115.046 11.2757 115.802 11.368 116.521 11.5342C117.24 11.7003 117.905 11.9588 118.517 12.2911C119.128 12.6234 119.686 13.0665 120.171 13.5835C120.657 14.1004 121.034 14.7097 121.322 15.4297L117.852 16.9251C117.528 16.1497 117.006 15.5774 116.287 15.2266C115.586 14.8758 114.849 14.6912 114.129 14.6912C113.806 14.6912 113.464 14.7281 113.122 14.8204C112.781 14.9127 112.475 15.0235 112.205 15.1897C111.936 15.3558 111.702 15.5405 111.54 15.7989C111.36 16.0389 111.27 16.3159 111.27 16.5928C111.27 17.0728 111.468 17.4605 111.882 17.7375C112.295 18.0144 112.925 18.2729 113.77 18.476L116.431 19.1591C118.229 19.6206 119.542 20.3222 120.387 21.2453C121.232 22.1869 121.646 23.2762 121.646 24.5316C121.646 25.307 121.466 26.027 121.124 26.7101C120.782 27.3932 120.297 28.0025 119.65 28.5379C119.02 29.0733 118.247 29.4979 117.366 29.7935C116.503 30.1627 115.514 30.3103 114.453 30.3103Z" fill="white"/>
<path fill-rule="evenodd" clip-rule="evenodd" d="M32.5217 17.1453C32.5031 20.7628 31.3146 24.0977 29.3462 26.8108C27.1642 29.5561 24.3813 32.4841 21.8505 35.1471C19.9987 37.0955 18.2819 38.9017 17.0344 40.3904C16.5516 40.9369 15.6974 40.9369 15.2331 40.3717C14.0802 38.9635 12.5085 37.2917 10.8046 35.4795C8.19996 32.7092 5.28649 29.6102 3.08844 26.6224L3.06987 26.6035C1.15717 23.8904 0.0244141 20.5744 0.0244141 16.9946C0.0244141 7.81887 7.43379 0.376613 16.5144 0.508501C25.4094 0.64039 32.6145 8.12034 32.5217 17.1453ZM22.926 15.6723C23.2836 15.8897 23.2948 16.4152 22.9468 16.6485L17.6109 20.2245C17.3761 20.3819 17.2906 20.6923 17.4106 20.9519L19.9242 26.3909C20.1615 26.9043 19.6055 27.4218 19.1281 27.1318L9.63877 21.3677C9.28095 21.1503 9.26958 20.6246 9.61769 20.3913L14.9528 16.8158C15.1878 16.6583 15.2732 16.3476 15.1529 16.0879L12.6254 10.634C12.3873 10.1205 12.9438 9.6023 13.4214 9.89275L22.926 15.6723Z" fill="#FF0013"/>
</g>
<defs>
<clipPath id="clip0_22_386">
<rect width="121.833" height="40.2912" fill="white" transform="translate(0.0244141 0.506714)"/>
</clipPath>
</defs>
</svg>
