<svg width="123" height="41" viewBox="0 0 123 41" fill="none" xmlns="http://www.w3.org/2000/svg">
<g clip-path="url(#clip0_22_375)">
<path d="M17.4713 33.4655C26.8308 33.4655 34.4182 26.0703 34.4182 16.9478C34.4182 7.82535 26.8308 0.430115 17.4713 0.430115C8.1118 0.430115 0.524414 7.82535 0.524414 16.9478C0.524414 26.0703 8.1118 33.4655 17.4713 33.4655Z" fill="#FFAE1F"/>
<path d="M47.1952 7.36353C49.9206 7.36353 52.3796 8.4841 54.1418 10.2975C55.904 8.4841 58.363 7.36353 61.0885 7.36353C66.4364 7.36353 70.7602 11.6625 70.7602 16.9803V26.6379C70.7602 28.1252 69.5309 29.3477 68.0347 29.3477C66.539 29.3477 65.3097 28.1252 65.3097 26.6379V25.6395V16.9803C65.3097 14.6576 63.4243 12.7832 61.0885 12.7832C58.7522 12.7832 56.8673 14.6576 56.8673 16.9803V25.6395V26.6379C56.8673 28.1252 55.6376 29.3477 54.1418 29.3477C52.6461 29.3477 51.4164 28.1252 51.4164 26.6379V25.6395V16.9803C51.4164 14.6576 49.5315 12.7832 47.1952 12.7832C44.8593 12.7832 42.9741 14.6576 42.9741 16.9803V25.6395V26.6379C42.9741 28.1252 41.7446 29.3477 40.2488 29.3477C38.7529 29.3477 37.5234 28.1252 37.5234 26.6379V16.9803V10.0733C37.5234 8.58601 38.7529 7.36353 40.2488 7.36353C41.1914 7.36353 42.011 7.83213 42.5028 8.5656C43.8962 7.81176 45.4943 7.36353 47.1952 7.36353Z" fill="white"/>
<path d="M93.382 7.36346C92.2548 7.36346 91.292 8.0358 90.8818 9.01378C89.1814 7.97471 87.1935 7.36346 85.0623 7.36346C78.9562 7.36346 74.0176 12.2737 74.0176 18.3453C74.0176 24.417 78.9562 29.3273 85.0623 29.3273C87.1935 29.3273 89.2015 28.716 90.8818 27.6769C91.292 28.6345 92.2754 29.3273 93.382 29.3273C94.8777 29.3273 96.107 28.1048 96.107 26.6174V18.3453V10.0733C96.107 8.58595 94.8777 7.36346 93.382 7.36346ZM85.0623 23.928C81.9683 23.928 79.4685 21.4423 79.4685 18.3657C79.4685 15.2892 81.9683 12.8035 85.0623 12.8035C88.1567 12.8035 90.6565 15.2892 90.6565 18.3657C90.6565 21.4219 88.1567 23.928 85.0623 23.928Z" fill="white"/>
<path d="M119.591 7.36353C118.484 7.36353 117.521 8.03586 117.07 8.97311C112.808 6.38555 107.173 6.91529 103.485 10.5827C99.1608 14.8817 99.1608 21.8295 103.485 26.1285C107.091 29.7144 112.583 30.3053 116.824 27.8807V29.3477C116.824 32.3631 114.325 34.8488 111.291 34.8488C109.714 34.8488 108.197 34.1765 107.152 32.9744C107.111 32.9336 107.091 32.8929 107.05 32.8725C105.964 31.7927 104.222 31.7927 103.136 32.8725C102.111 33.8912 102.05 35.5212 102.993 36.6011C105.083 38.9849 108.115 40.35 111.312 40.35C117.377 40.35 122.357 35.3989 122.357 29.3681C122.357 29.3681 122.357 28.2067 122.357 26.6175V18.3454V10.1141C122.357 8.60638 121.107 7.36353 119.591 7.36353ZM115.205 22.237C113.054 24.3763 109.55 24.3763 107.398 22.237C105.247 20.0976 105.247 16.6136 107.398 14.4743C109.55 12.3349 113.054 12.3349 115.205 14.4743C116.271 15.5337 116.824 16.9396 116.824 18.325V18.3862C116.824 19.7716 116.271 21.1775 115.205 22.237Z" fill="white"/>
<path d="M27.0016 10.1132C27.0016 8.6055 25.7517 7.36265 24.2353 7.36265C22.719 7.36265 21.469 8.6055 21.469 10.1132V19.8116C21.3871 22.012 19.5838 23.7642 17.3298 23.7642C15.0758 23.7642 13.2725 22.012 13.1906 19.7912V10.0929C13.1906 8.58514 11.9406 7.34229 10.4243 7.34229C8.90788 7.34229 7.65796 8.58514 7.65796 10.0929V19.6486V19.6689V19.6893C7.65796 25.0071 11.9816 29.3061 17.3298 29.3061C22.4526 29.3061 26.6328 25.3534 26.9812 20.3413C27.0016 20.219 27.0016 20.1172 27.0016 19.9949V10.1132Z" fill="white"/>
</g>
<defs>
<clipPath id="clip0_22_375">
<rect width="121.833" height="40.2911" fill="white" transform="translate(0.524414 0.430359)"/>
</clipPath>
</defs>
</svg>
