<svg width="115" height="54" viewBox="0 0 115 54" fill="none" xmlns="http://www.w3.org/2000/svg">
<path fill-rule="evenodd" clip-rule="evenodd" d="M88.2559 53.7442C103.026 53.7442 115 41.7705 115 27C115 12.2296 103.026 0.255859 88.2559 0.255859C73.4855 0.255859 61.5117 12.2296 61.5117 27C61.5117 41.7705 73.4855 53.7442 88.2559 53.7442ZM88.258 43.0465C96.4638 43.0465 103.116 35.8623 103.116 27C103.116 18.1378 96.4638 10.9535 88.258 10.9535C80.0522 10.9535 73.4001 18.1378 73.4001 27C73.4001 35.8623 80.0522 43.0465 88.258 43.0465Z" fill="white"/>
<path d="M16.0464 53.7442L27.0784 8.27905H37.4417L26.1148 53.7442H16.0464Z" fill="white"/>
<path d="M0 53.7442L10.1563 8.60526C11.2546 3.72391 15.5896 0.255859 20.593 0.255859H24.0698L11.327 53.7442H0Z" fill="#FE0000"/>
<path d="M56.1626 45.7209L47.805 8.27905H37.4417L45.9037 45.7209H56.1626Z" fill="white"/>
<path d="M56.1626 45.721L62.6084 18.9768H72.2091L68.2945 36.5925C67.4155 40.548 64.3772 43.6674 60.4462 44.6501L56.1626 45.721Z" fill="white"/>
<path fill-rule="evenodd" clip-rule="evenodd" d="M40.6616 21.1582C44.9964 19.7917 48.1395 15.7397 48.1395 10.9535C48.1395 5.04537 43.35 0.255859 37.4418 0.255859C31.5337 0.255859 26.7441 5.04537 26.7441 10.9535C26.7441 15.7397 29.8873 19.7918 34.2221 21.1582L36.2749 12.9472C36.5786 11.7323 38.3052 11.7323 38.6089 12.9472L40.6616 21.1582Z" fill="white"/>
<path fill-rule="evenodd" clip-rule="evenodd" d="M59.3822 32.3482C63.717 33.7145 66.8602 37.7666 66.8602 42.5528C66.8602 48.461 62.0707 53.2505 56.1625 53.2505C50.2544 53.2505 45.4648 48.461 45.4648 42.5528C45.4648 37.7667 48.6079 33.7146 52.9426 32.3482L54.9954 40.5593C55.2991 41.7742 57.0257 41.7742 57.3294 40.5593L59.3822 32.3482Z" fill="white"/>
<circle cx="88.2557" cy="27.0001" r="8.02326" fill="#FE0000"/>
</svg>
