<svg width="123" height="41" viewBox="0 0 123 41" fill="none" xmlns="http://www.w3.org/2000/svg">
<g clip-path="url(#clip0_30_723)">
<path d="M17.4713 33.4651C26.8308 33.4651 34.4182 26.0699 34.4182 16.9474C34.4182 7.82492 26.8308 0.429688 17.4713 0.429688C8.1118 0.429688 0.524414 7.82492 0.524414 16.9474C0.524414 26.0699 8.1118 33.4651 17.4713 33.4651Z" fill="#FFAE1F"/>
<path d="M47.1952 7.36328C49.9206 7.36328 52.3796 8.48386 54.1418 10.2972C55.904 8.48386 58.363 7.36328 61.0885 7.36328C66.4364 7.36328 70.7602 11.6623 70.7602 16.9801V26.6376C70.7602 28.125 69.5309 29.3474 68.0347 29.3474C66.539 29.3474 65.3097 28.125 65.3097 26.6376V25.6393V16.9801C65.3097 14.6574 63.4243 12.7829 61.0885 12.7829C58.7522 12.7829 56.8673 14.6574 56.8673 16.9801V25.6393V26.6376C56.8673 28.125 55.6376 29.3474 54.1418 29.3474C52.6461 29.3474 51.4164 28.125 51.4164 26.6376V25.6393V16.9801C51.4164 14.6574 49.5315 12.7829 47.1952 12.7829C44.8593 12.7829 42.9741 14.6574 42.9741 16.9801V25.6393V26.6376C42.9741 28.125 41.7446 29.3474 40.2488 29.3474C38.7529 29.3474 37.5234 28.125 37.5234 26.6376V16.9801V10.0731C37.5234 8.58577 38.7529 7.36328 40.2488 7.36328C41.1914 7.36328 42.011 7.83188 42.5028 8.56536C43.8962 7.81152 45.4943 7.36328 47.1952 7.36328Z" fill="white"/>
<path d="M93.382 7.36328C92.2548 7.36328 91.292 8.03562 90.8818 9.0136C89.1814 7.97452 87.1935 7.36328 85.0623 7.36328C78.9562 7.36328 74.0176 12.2735 74.0176 18.3452C74.0176 24.4168 78.9562 29.3271 85.0623 29.3271C87.1935 29.3271 89.2015 28.7158 90.8818 27.6767C91.292 28.6343 92.2754 29.3271 93.382 29.3271C94.8777 29.3271 96.107 28.1046 96.107 26.6172V18.3452V10.0731C96.107 8.58577 94.8777 7.36328 93.382 7.36328ZM85.0623 23.9278C81.9683 23.9278 79.4685 21.4421 79.4685 18.3656C79.4685 15.289 81.9683 12.8033 85.0623 12.8033C88.1567 12.8033 90.6565 15.289 90.6565 18.3656C90.6565 21.4217 88.1567 23.9278 85.0623 23.9278Z" fill="white"/>
<path d="M119.591 7.36328C118.484 7.36328 117.521 8.03562 117.07 8.97287C112.808 6.3853 107.173 6.91504 103.485 10.5825C99.1608 14.8815 99.1608 21.8292 103.485 26.1283C107.091 29.7142 112.583 30.3051 116.824 27.8805V29.3474C116.824 32.3629 114.325 34.8486 111.291 34.8486C109.714 34.8486 108.197 34.1762 107.152 32.9741C107.111 32.9334 107.091 32.8926 107.05 32.8723C105.964 31.7924 104.222 31.7924 103.136 32.8723C102.111 33.891 102.05 35.521 102.993 36.6008C105.083 38.9847 108.115 40.3497 111.312 40.3497C117.377 40.3497 122.357 35.3987 122.357 29.3678C122.357 29.3678 122.357 28.2065 122.357 26.6172V18.3452V10.1139C122.357 8.60613 121.107 7.36328 119.591 7.36328ZM115.205 22.2367C113.054 24.376 109.55 24.376 107.398 22.2367C105.247 20.0974 105.247 16.6133 107.398 14.474C109.55 12.3347 113.054 12.3347 115.205 14.474C116.271 15.5335 116.824 16.9394 116.824 18.3248V18.3859C116.824 19.7714 116.271 21.1772 115.205 22.2367Z" fill="white"/>
<path d="M27.0019 10.1132C27.0019 8.6055 25.7519 7.36265 24.2356 7.36265C22.7192 7.36265 21.4693 8.6055 21.4693 10.1132V19.8116C21.3873 22.012 19.5841 23.7642 17.3301 23.7642C15.076 23.7642 13.2728 22.012 13.1908 19.7912V10.0929C13.1908 8.58514 11.9408 7.34229 10.4245 7.34229C8.90813 7.34229 7.6582 8.58514 7.6582 10.0929V19.6486V19.6689V19.6893C7.6582 25.0071 11.9818 29.3061 17.3301 29.3061C22.4529 29.3061 26.633 25.3534 26.9814 20.3413C27.0019 20.219 27.0019 20.1172 27.0019 19.9949V10.1132Z" fill="white"/>
</g>
<defs>
<clipPath id="clip0_30_723">
<rect width="121.833" height="40.2911" fill="white" transform="translate(0.524414 0.430176)"/>
</clipPath>
</defs>
</svg>
