<svg width="122" height="41" viewBox="0 0 122 41" fill="none" xmlns="http://www.w3.org/2000/svg">
<g clip-path="url(#clip0_30_734)">
<path d="M25.3557 8.19922H6.35645V28.0372H25.3557V8.19922Z" fill="white"/>
<path d="M41.878 26.0239L51.2282 15.1127H41.6318V11.5864H56.083V14.965L46.7331 25.8762H56.083V29.4026H41.878V26.0239Z" fill="white"/>
<path d="M76.0789 11.5048V29.4869H72.5368L72.5008 27.0869C71.1522 28.8408 68.8148 29.8933 66.1176 29.8933C60.9751 29.8933 57.4326 26.0346 57.4326 20.4959C57.4326 14.9572 60.9751 11.0986 66.1176 11.0986C68.8506 11.0986 71.1522 12.151 72.5008 13.9049L72.5368 11.5048H76.0789ZM72.1052 20.4775C72.1052 17.1358 69.9116 14.8095 66.7468 14.8095C63.6002 14.8095 61.3887 17.1358 61.3887 20.4775C61.3887 23.8191 63.5822 26.1454 66.7468 26.1454C69.9116 26.1638 72.1052 23.8376 72.1052 20.4775Z" fill="white"/>
<path d="M97.9466 20.4775C97.9466 26.0161 94.4045 29.8749 89.2619 29.8749C86.8165 29.8749 84.6587 29.007 83.2741 27.5116V37.7766H79.3003V11.5048H82.8424L82.8785 13.9049C84.2271 12.151 86.5647 11.0986 89.2619 11.0986C94.4045 11.0986 97.9466 14.9573 97.9466 20.4775ZM93.9728 20.4775C93.9728 17.1358 91.7793 14.8095 88.6145 14.8095C85.5036 14.8095 83.2561 17.1358 83.2561 20.4775C83.2561 23.8191 85.4859 26.1454 88.6145 26.1454C91.7793 26.1638 93.9728 23.8376 93.9728 20.4775Z" fill="white"/>
<path d="M100.41 29.72V11.5347H104.24V29.72H100.41Z" fill="white"/>
<path d="M114.453 30.3105C113.392 30.3105 112.439 30.1629 111.576 29.8673C110.731 29.572 109.976 29.2027 109.346 28.7227C108.717 28.2427 108.178 27.7073 107.728 27.098C107.297 26.4888 106.955 25.861 106.721 25.2149L110.263 23.6825C110.659 24.7349 111.252 25.4918 112.008 25.9903C112.763 26.4888 113.572 26.7288 114.453 26.7288C115.442 26.7288 116.233 26.5257 116.791 26.1011C117.366 25.6949 117.636 25.2333 117.636 24.7164C117.636 24.1994 117.42 23.7564 117.006 23.3871C116.575 23.0179 115.784 22.6856 114.597 22.3901L112.116 21.7624C111.576 21.6332 111.019 21.4486 110.461 21.1901C109.904 20.9316 109.4 20.5993 108.915 20.2116C108.447 19.8054 108.052 19.3254 107.764 18.7531C107.476 18.1807 107.315 17.5161 107.315 16.7407C107.315 15.873 107.494 15.0976 107.872 14.4144C108.232 13.7313 108.735 13.159 109.382 12.6975C110.012 12.2359 110.767 11.8851 111.594 11.6451C112.439 11.4051 113.32 11.2759 114.273 11.2759C115.046 11.2759 115.802 11.3682 116.521 11.5343C117.24 11.7005 117.905 11.959 118.517 12.2913C119.128 12.6236 119.686 13.0667 120.171 13.5836C120.657 14.1006 121.034 14.7098 121.322 15.4299L117.852 16.9253C117.528 16.1499 117.006 15.5776 116.287 15.2268C115.586 14.876 114.849 14.6914 114.129 14.6914C113.806 14.6914 113.464 14.7283 113.122 14.8206C112.781 14.9129 112.475 15.0237 112.205 15.1899C111.936 15.356 111.702 15.5406 111.54 15.7991C111.36 16.0391 111.27 16.3161 111.27 16.593C111.27 17.073 111.468 17.4607 111.882 17.7377C112.295 18.0146 112.925 18.2731 113.77 18.4761L116.431 19.1592C118.229 19.6208 119.542 20.3224 120.387 21.2455C121.232 22.1871 121.646 23.2763 121.646 24.5318C121.646 25.3072 121.466 26.0272 121.124 26.7103C120.782 27.3934 120.297 28.0027 119.65 28.5381C119.02 29.0735 118.247 29.4981 117.366 29.7936C116.503 30.1629 115.514 30.3105 114.453 30.3105Z" fill="white"/>
<path fill-rule="evenodd" clip-rule="evenodd" d="M32.5217 17.1453C32.5031 20.7628 31.3146 24.0977 29.3462 26.8109C27.1642 29.5562 24.3813 32.4842 21.8505 35.1472C19.9987 37.0955 18.2819 38.9017 17.0344 40.3905C16.5516 40.937 15.6974 40.937 15.2331 40.3718C14.0802 38.9636 12.5085 37.2918 10.8046 35.4796C8.19996 32.7093 5.28649 29.6103 3.08844 26.6224L3.06987 26.6036C1.15717 23.8905 0.0244141 20.5744 0.0244141 16.9946C0.0244141 7.81893 7.43379 0.376674 16.5144 0.508562C25.4094 0.640451 32.6145 8.1204 32.5217 17.1453ZM22.926 15.6723C23.2836 15.8898 23.2948 16.4153 22.9468 16.6485L17.6109 20.2246C17.3761 20.382 17.2906 20.6924 17.4106 20.952L19.9242 26.391C20.1615 26.9044 19.6055 27.4218 19.1281 27.1318L9.63877 21.3677C9.28095 21.1504 9.26958 20.6247 9.61769 20.3914L14.9528 16.8159C15.1878 16.6584 15.2732 16.3476 15.1529 16.0879L12.6254 10.6341C12.3873 10.1205 12.9438 9.60236 13.4214 9.89281L22.926 15.6723Z" fill="#FF0013"/>
</g>
<defs>
<clipPath id="clip0_30_734">
<rect width="121.833" height="40.2912" fill="white" transform="translate(0.0244141 0.506836)"/>
</clipPath>
</defs>
</svg>
