<svg width="101" height="100" viewBox="0 0 101 100" fill="none" xmlns="http://www.w3.org/2000/svg">
<g clip-path="url(#clip0_1_573)">
<path fill-rule="evenodd" clip-rule="evenodd" d="M88.167 12.5H13.167C12.062 12.5 11.0022 12.939 10.2208 13.7204C9.43935 14.5018 9.00037 15.5616 9.00037 16.6667V83.3333C9.00037 84.4384 9.43935 85.4982 10.2208 86.2796C11.0022 87.061 12.062 87.5 13.167 87.5H88.167C89.2721 87.5 90.3319 87.061 91.1133 86.2796C91.8947 85.4982 92.3337 84.4384 92.3337 83.3333V16.6667C92.3337 15.5616 91.8947 14.5018 91.1133 13.7204C90.3319 12.939 89.2721 12.5 88.167 12.5ZM17.3337 50V20.8333H84.0004V50V79.1667H17.3337V50Z" fill="white"/>
<path d="M37.9587 58.8375L29.117 50L37.9587 41.1667L32.067 35.2667L17.3337 50L32.067 64.7333L37.9587 58.8375Z" fill="#ED2E3C"/>
<path d="M69.267 64.7333L84.0004 50L69.267 35.2667L63.3754 41.1625L72.217 50L63.3754 58.8375L69.267 64.7333Z" fill="#ED2E3C"/>
<path d="M47.517 70.8333H38.6504L53.817 29.1667H62.6837L47.517 70.8333Z" fill="white"/>
</g>
<defs>
<clipPath id="clip0_1_573">
<rect width="100" height="100" fill="white" transform="translate(0.666992)"/>
</clipPath>
</defs>
</svg>
