<svg width="100" height="100" viewBox="0 0 100 100" fill="none" xmlns="http://www.w3.org/2000/svg">
<path fill-rule="evenodd" clip-rule="evenodd" d="M22.0333 58.3584C21.3702 60.595 20.9785 62.9032 20.8666 65.2334L20.8333 66.6667V91.6667H8.33325V72.9167C8.33243 69.3233 9.65837 65.856 12.0567 63.1801C14.4551 60.5041 17.757 58.8079 21.3291 58.4167L22.0333 58.3584ZM77.9666 58.3584C81.6745 58.5844 85.1566 60.2165 87.7024 62.9218C90.2482 65.6272 91.666 69.2019 91.6666 72.9167V91.6667H79.1666V66.6667C79.1666 63.7792 78.7499 60.9917 77.9666 58.3584ZM22.9166 33.3334C25.6793 33.3334 28.3288 34.4308 30.2823 36.3843C32.2358 38.3378 33.3333 40.9874 33.3333 43.75C33.3333 46.5127 32.2358 49.1622 30.2823 51.1157C28.3288 53.0692 25.6793 54.1667 22.9166 54.1667C20.1539 54.1667 17.5044 53.0692 15.5509 51.1157C13.5974 49.1622 12.4999 46.5127 12.4999 43.75C12.4999 40.9874 13.5974 38.3378 15.5509 36.3843C17.5044 34.4308 20.1539 33.3334 22.9166 33.3334ZM77.0833 33.3334C79.8459 33.3334 82.4954 34.4308 84.4489 36.3843C86.4025 38.3378 87.4999 40.9874 87.4999 43.75C87.4999 46.5127 86.4025 49.1622 84.4489 51.1157C82.4954 53.0692 79.8459 54.1667 77.0833 54.1667C74.3206 54.1667 71.6711 53.0692 69.7176 51.1157C67.764 49.1622 66.6666 46.5127 66.6666 43.75C66.6666 40.9874 67.764 38.3378 69.7176 36.3843C71.6711 34.4308 74.3206 33.3334 77.0833 33.3334Z" fill="white"/>
<path d="M49.9999 45.8334C55.5253 45.8334 60.8243 48.0283 64.7313 51.9353C68.6383 55.8423 70.8332 61.1414 70.8332 66.6667V91.6667H29.1666V66.6667C29.1666 61.1414 31.3615 55.8423 35.2685 51.9353C39.1755 48.0283 44.4746 45.8334 49.9999 45.8334Z" fill="#ED2E3C"/>
<path d="M49.9999 8.33337C54.4202 8.33337 58.6594 10.0893 61.785 13.2149C64.9106 16.3405 66.6666 20.5798 66.6666 25C66.6666 29.4203 64.9106 33.6595 61.785 36.7852C58.6594 39.9108 54.4202 41.6667 49.9999 41.6667C45.5796 41.6667 41.3404 39.9108 38.2148 36.7852C35.0892 33.6595 33.3333 29.4203 33.3333 25C33.3333 20.5798 35.0892 16.3405 38.2148 13.2149C41.3404 10.0893 45.5796 8.33337 49.9999 8.33337Z" fill="#ED2E3C"/>
</svg>
