<svg width="100" height="100" viewBox="0 0 100 100" fill="none" xmlns="http://www.w3.org/2000/svg">
<g clip-path="url(#clip0_1_582)">
<path fill-rule="evenodd" clip-rule="evenodd" d="M50 16.6666C41.4909 16.6531 33.2323 19.5461 26.5917 24.8666V24.8708L20.5375 18.8166L14.6459 24.7083L20.7 30.7583C16.2929 36.2756 13.5332 42.9251 12.7383 49.9416C11.9435 56.9581 13.1459 64.0564 16.2072 70.4197C19.2685 76.783 24.0642 82.1527 30.0425 85.9107C36.0208 89.6688 42.9386 91.6626 50 91.6626C57.0614 91.6626 63.9793 89.6688 69.9576 85.9107C75.9358 82.1527 80.7316 76.783 83.7929 70.4197C86.8541 64.0564 88.0565 56.9581 87.2617 49.9416C86.4669 42.9251 83.7071 36.2756 79.3 30.7583L85.3542 24.7041L79.4625 18.8125L73.4084 24.8666C66.9917 19.7333 58.8542 16.6666 50 16.6666ZM61.1616 81.1131C57.623 82.5789 53.8302 83.3333 50 83.3333C42.2645 83.3333 34.8459 80.2604 29.3761 74.7906C23.9063 69.3208 20.8334 61.9021 20.8334 54.1666C20.8334 46.4311 23.9063 39.0125 29.3761 33.5427C34.8459 28.0729 42.2645 25 50 25C53.8302 25 57.623 25.7544 61.1616 27.2201C64.7003 28.6859 67.9156 30.8343 70.624 33.5427C73.3323 36.2511 75.4807 39.4664 76.9465 43.005C78.4123 46.5437 79.1667 50.3364 79.1667 54.1666C79.1667 57.9968 78.4123 61.7896 76.9465 65.3282C75.4807 68.8669 73.3323 72.0822 70.624 74.7906C67.9156 77.499 64.7003 79.6474 61.1616 81.1131ZM66.6667 4.16663H33.3334V12.5H66.6667V4.16663Z" fill="white"/>
<path d="M54.1667 50H66.6667L45.8334 77.0833V58.3333H33.3334L54.1667 31.2291V50Z" fill="#ED2E3C"/>
</g>
<defs>
<clipPath id="clip0_1_582">
<rect width="100" height="100" fill="white"/>
</clipPath>
</defs>
</svg>
